<?xml version="1.0" encoding="utf-8"?>
<!-- Generator: Adobe Illustrator 21.1.0, SVG Export Plug-In . SVG Version: 6.00 Build 0)  -->
<svg version="1.1"
	 id="Layer_1" inkscape:version="0.91 r13725" sodipodi:docname="line-speed.svg" xmlns:cc="http://creativecommons.org/ns#" xmlns:dc="http://purl.org/dc/elements/1.1/" xmlns:inkscape="http://www.inkscape.org/namespaces/inkscape" xmlns:rdf="http://www.w3.org/1999/02/22-rdf-syntax-ns#" xmlns:sodipodi="http://sodipodi.sourceforge.net/DTD/sodipodi-0.dtd" xmlns:svg="http://www.w3.org/2000/svg"
	 xmlns="http://www.w3.org/2000/svg" xmlns:xlink="http://www.w3.org/1999/xlink" x="0px" y="0px" viewBox="0 0 1133.9 378.4"
	 style="enable-background:new 0 0 1133.9 378.4;" xml:space="preserve">
<style type="text/css">
	.st0{clip-path:url(#SVGID_2_);}
	.st1{fill:none;stroke:#FF2A2A;stroke-width:0.75;stroke-linecap:round;stroke-linejoin:round;stroke-miterlimit:10;}
	.st2{fill:none;stroke:#FFFFFF;stroke-width:0.75;stroke-linecap:round;stroke-linejoin:round;stroke-miterlimit:10;}
	.st3{clip-path:url(#SVGID_4_);}
	.st4{fill:none;stroke:#999999;stroke-width:0.75;stroke-linecap:round;stroke-linejoin:round;stroke-miterlimit:10;}
	.st5{clip-path:url(#SVGID_6_);}
	.st6{fill:none;stroke:#FF5555;stroke-width:0.75;stroke-linecap:round;stroke-linejoin:round;stroke-miterlimit:10;}
	.st7{clip-path:url(#SVGID_8_);}
	.st8{clip-path:url(#SVGID_10_);}
	.st9{fill:none;stroke:#D40000;stroke-width:0.75;stroke-linecap:round;stroke-linejoin:round;stroke-miterlimit:10;}
	.st10{clip-path:url(#SVGID_12_);}
	.st11{fill:none;stroke:#F2F2F2;stroke-width:0.75;stroke-linecap:round;stroke-linejoin:round;stroke-miterlimit:10;}
	.st12{fill:none;stroke:#550000;stroke-width:0.75;stroke-linecap:round;stroke-linejoin:round;stroke-miterlimit:10;}
	.st13{clip-path:url(#SVGID_14_);}
	.st14{fill:none;stroke:#AA0000;stroke-width:0.75;stroke-linecap:round;stroke-linejoin:round;stroke-miterlimit:10;}
	.st15{clip-path:url(#SVGID_16_);}
	.st16{fill:none;stroke:#FFD5D5;stroke-width:0.75;stroke-linecap:round;stroke-linejoin:round;stroke-miterlimit:10;}
	.st17{clip-path:url(#SVGID_18_);}
	.st18{fill:none;stroke:#000000;stroke-width:0.75;stroke-linecap:round;stroke-linejoin:round;stroke-miterlimit:10;}
	.st19{clip-path:url(#SVGID_20_);}
	.st20{fill:none;stroke:#FFAAAA;stroke-width:0.75;stroke-linecap:round;stroke-linejoin:round;stroke-miterlimit:10;}
	.st21{fill:none;}
	.st22{fill:#FFFFFF;}
	.st23{font-family:'Futura-Medium';}
	.st24{font-size:14.0518px;}
</style>
<sodipodi:namedview  bordercolor="#666666" borderopacity="1" gridtolerance="10" guidetolerance="10" id="namedview3906" inkscape:current-layer="Layer_1" inkscape:cx="144.16344" inkscape:cy="94.248389" inkscape:pageopacity="0" inkscape:pageshadow="2" inkscape:window-height="712" inkscape:window-maximized="1" inkscape:window-width="1280" inkscape:window-x="0" inkscape:window-y="0" inkscape:zoom="7.5" objecttolerance="10" pagecolor="#ffffff" showgrid="false">
	</sodipodi:namedview>
<g id="g3740">
	<g>
		<defs>
			<path id="SVGID_1_" d="M60.2-18.8h1095.6V281c0,0-901.8,157.4-1095.6,0C-5,228,60.2-18.8,60.2-18.8z"/>
		</defs>
		<clipPath id="SVGID_2_">
			<use xlink:href="#SVGID_1_"  style="overflow:visible;"/>
		</clipPath>
		<g id="g3748" class="st0">
			<path id="path3750" class="st1" d="M1154.6-138.2"/>
			<path id="path3752" class="st1" d="M63.6,258.3c0,0,67.5,18.7,90.8,19.7c23.1,0.9,68.3-7.7,90.8-11.7c23.1-4,67.5-18,90.8-19.7
				c22.8-1.6,68.3,3.3,90.8,6.6c23.4,3.5,67.5,19.4,90.8,20.6c23.1,0.9,68-9.6,90.8-11.9c22.8-2.1,68-5.9,90.8-5.6
				c22.8,0.2,68.3,8.4,90.8,6.6c23.4-1.6,67.5-18.5,90.8-20.4c22.8-1.9,68.3,2.1,90.8,5.2c23.4,3.3,90.8,20.4,90.8,20.4"/>
		</g>
	</g>
</g>
<path id="path3754" class="st2" d="M63.6,308.1h1000.2"/>
<path id="path3756" class="st2" d="M154.4,308.1V325"/>
<path id="path3758" class="st2" d="M336.4,308.1V325"/>
<path id="path3760" class="st2" d="M518.3,308.1V325"/>
<path id="path3762" class="st2" d="M699.9,308.1V325"/>
<path id="path3764" class="st2" d="M881.8,308.1V325"/>
<path id="path3766" class="st2" d="M1063.8,308.1V325"/>
<g id="g3778">
	<g>
		<defs>
			<path id="SVGID_3_" d="M60.2-18.8h1092.7v295.1c0,0-899.5,156.9-1092.7,0C-4.1,224.1,60.2-18.8,60.2-18.8z"/>
		</defs>
		<clipPath id="SVGID_4_">
			<use xlink:href="#SVGID_3_"  style="overflow:visible;"/>
		</clipPath>
		<g id="g3786" class="st3">
			<path id="path3788" class="st4" d="M63.6,254.7c0,0,67.5,17.1,90.8,17.1c23.4,0.2,67.8-15,90.8-16.2c22.8-1.2,68.3,5.4,90.8,7.5
				c22.8,1.9,68.3,11.2,90.8,8.2c24.8-3.3,66.3-30.4,90.8-33.5c22.5-2.8,68,10.3,90.8,8.7c23.6-1.6,67.2-24.1,90.8-22.2
				c25.7,2.1,66.3,33.5,90.8,40c21.9,5.6,68,8.4,90.8,8.9c22.8,0.2,68.6-2.6,90.8-6.1c23.4-3.7,90.8-3.7,90.8-23.2"/>
		</g>
	</g>
</g>
<g id="g3790">
	<g>
		<defs>
			<rect id="SVGID_5_" x="60.2" y="-18.8" width="1043.7" height="274"/>
		</defs>
		<clipPath id="SVGID_6_">
			<use xlink:href="#SVGID_5_"  style="overflow:visible;"/>
		</clipPath>
		<g id="g3798" class="st5">
			<path id="path3800" class="st6" d="M63.6,251.9c0,0,67.5-19.2,90.8-21.1c22.8-1.9,69.2,11.5,90.8,6.1c28-7,65.7-47.5,90.8-59.5
				c21-10.1,66.6-31.4,90.8-29c27.7,2.8,63.7,47.5,90.8,52.5c22.5,4,67.8-15.2,90.8-13.8c23.9,1.4,67.5,20.6,90.8,24.6
				c22.2,3.7,68,8,90.8,7.3c23.1-0.7,68-10.5,90.8-12.9c22.5-2.3,68.9-10.8,90.8-5.9c26.8,5.9,90.8,52,90.8,52"/>
		</g>
	</g>
</g>
<g id="g3802">
	<g>
		<defs>
			<path id="SVGID_7_" d="M60.2-18.8h1023.5V199c0,0-842.4,147.1-1023.5,0C12.9,160.6,60.2-18.8,60.2-18.8z"/>
		</defs>
		<clipPath id="SVGID_8_">
			<use xlink:href="#SVGID_7_"  style="overflow:visible;"/>
		</clipPath>
		<g id="g3810" class="st7">
			<path id="path3812" class="st2" d="M63.6,107.7c0,0,66,33,90.8,37.5c22.2,4.2,69.2-7,90.8-1.6c26.5,6.6,63.1,50.4,90.8,52.2
				c25.1,1.6,67.8-27.2,90.8-35.1c22.2-7.5,72.1-14.5,90.8-26.9c32.9-21.5,48.7-112.9,90.8-115.5c34-2.1,65.2,64.9,90.8,83.1
				c20.5,14.5,65.7,40.8,90.8,49.2c21.3,7.3,67.8,16.9,90.8,15c24.5-1.9,66.6-34,90.8-31.1c28.8,3.3,90.8,59.5,90.8,59.5"/>
		</g>
	</g>
</g>
<g id="g3814">
	<g>
		<defs>
			<path id="SVGID_9_" d="M60.2-18.8h1095.6V281c0,0-901.8,157.4-1095.6,0C-5,228,60.2-18.8,60.2-18.8z"/>
		</defs>
		<clipPath id="SVGID_10_">
			<use xlink:href="#SVGID_9_"  style="overflow:visible;"/>
		</clipPath>
		<g id="g3822" class="st8">
			<path id="path3824" class="st9" d="M63.6,259.9c0,0,68-4.4,90.8-4.2c22.8,0.2,68,7.3,90.8,6.8c22.8-0.2,68-7.7,90.8-9.6
				c22.8-1.6,68.3-6.3,90.8-4.4c23.4,1.9,67.8,16.9,90.8,19.7c22.5,2.8,68.3,5.2,90.8,3.7c23.1-1.4,67.8-13.6,90.8-15
				c22.8-1.2,68,4.2,90.8,5.2c22.8,0.9,68.3,3,90.8,1.9c23.1-1.2,68-13.1,90.8-11.5c23.9,1.6,90.8,25.3,90.8,25.3"/>
		</g>
	</g>
</g>
<g id="g3826">
	<g>
		<defs>
			<path id="SVGID_11_" d="M60.2-18.8h1055.2V288c0,0-868.7,151.5-1055.2,0C-6.7,233.7,60.2-18.8,60.2-18.8z"/>
		</defs>
		<clipPath id="SVGID_12_">
			<use xlink:href="#SVGID_11_"  style="overflow:visible;"/>
		</clipPath>
		<g id="g3834" class="st10">
			<path id="path3838" class="st11" d="M63.6,188.9c0,0,64,47.1,90.8,47.5c26.2,0.5,65.7-36.3,90.8-42.6c21.9-5.4,68.3-8,90.8-5.2
				c24.2,3,68.3,21.5,90.8,29.3c22.8,7.7,67.8,24.8,90.8,32.3c22.5,7.3,66.9,28.3,90.8,26.2c26.8-2.3,64-47.8,90.8-46.8
				c28.5,0.9,62.6,54.1,90.8,56c25.7,1.6,68-29.5,90.8-39.1c22.5-9.4,65.4-36.8,90.8-37c25.1-0.2,90.8,34.2,90.8,34.2"/>
		</g>
	</g>
</g>
<path id="path3840" class="st12" d="M63.6,271.1c0,0,68,11,90.8,10.8c23.1-0.2,68-11,90.8-11.9c22.8-0.9,68,5.2,90.8,5.2
	c22.8,0,68-4.7,90.8-5.2c22.8-0.5,68.3-0.5,90.8,1.2c23.1,1.6,67.8,11.9,90.8,12.4c22.8,0.5,68-7.3,90.8-8.9
	c22.8-1.6,68-3.5,90.8-4.7c22.8-0.9,68.3-4.9,90.8-3.5c23.1,1.2,68.3,10.3,90.8,13.8c22.8,3.5,90.8,14.1,90.8,14.1"/>
<g id="g3856">
	<g>
		<defs>
			<path id="SVGID_13_" d="M60.2-18.8h1081.2V281c0,0-890,155.3-1081.2,0C-5,228,60.2-18.8,60.2-18.8z"/>
		</defs>
		<clipPath id="SVGID_14_">
			<use xlink:href="#SVGID_13_"  style="overflow:visible;"/>
		</clipPath>
		<g id="g3864" class="st13">
			<path id="path3866" class="st14" d="M63.6,267.9c0,0,68-11.2,90.8-13.6c22.5-2.3,68.3-2.6,90.8-5.2c23.1-2.8,67.8-15.5,90.8-17.3
				c22.5-1.9,68.3-0.2,90.8,1.6c23.1,1.9,68.9,7.7,90.8,13.1c23.6,5.9,66.3,32.6,90.8,31.6c25.7-0.9,65.4-36.5,90.8-39.8
				c22.8-3,67.8,13.8,90.8,13.3c23.4-0.7,67.5-17.3,90.8-18.3c22.8-0.9,68.6,5.2,90.8,9.6c23.6,4.7,90.8,27.2,90.8,27.2"/>
		</g>
	</g>
</g>
<g id="g3868">
	<g>
		<defs>
			<path id="SVGID_15_" d="M60.2-18.8h1032.2v243.6c0,0-849.7,148.2-1032.2,0C7.1,181.7,60.2-18.8,60.2-18.8z"/>
		</defs>
		<clipPath id="SVGID_16_">
			<use xlink:href="#SVGID_15_"  style="overflow:visible;"/>
		</clipPath>
		<g id="g3876" class="st15">
			<path id="path3878" class="st16" d="M63.6,209.3c0,0,68,17.6,90.8,14.1c26.2-4,65.2-40.5,90.8-46.1c21.9-4.9,68.3,3.5,90.8,1.6
				c23.4-2.1,68-14.5,90.8-18c22.5-3.3,68.3-6.6,90.8-9.6c22.8-2.8,67.8-15.5,90.8-13.8c24.2,1.6,67.8,21.8,90.8,27.9
				c22.5,5.9,67.5,20.4,90.8,20.4c23.6,0,67.5-20.8,90.8-20.1c23.9,0.5,68.6,18,90.8,25.1c23.1,7,90.8,31.1,90.8,31.1"/>
		</g>
	</g>
</g>
<g id="g3880">
	<g>
		<defs>
			<path id="SVGID_17_" d="M60.2-18.8h1081.2V281c0,0-890,155.3-1081.2,0C-5,228,60.2-18.8,60.2-18.8z"/>
		</defs>
		<clipPath id="SVGID_18_">
			<use xlink:href="#SVGID_17_"  style="overflow:visible;"/>
		</clipPath>
		<g id="g3888" class="st17">
			<path id="path3892" class="st18" d="M63.6,274.4c0,0,64.9-39.8,90.8-43.6c22.8-3.3,68,15.2,90.8,13.6
				c24.2-1.6,66.6-27.4,90.8-27.2c24.5,0.2,67.2,24.6,90.8,29.7c22.2,4.7,68.6,5.4,90.8,9.4c23.4,4,67.5,26.7,90.8,23
				c28.8-4.4,61.7-58.3,90.8-60.4c25.9-1.9,65.2,37.7,90.8,41.5c22.5,3.5,68-9.8,90.8-10.8c22.8-0.7,68.3,1.6,90.8,4.7
				c23.1,3,90.8,19.2,90.8,19.2"/>
		</g>
	</g>
</g>
<g id="g3894">
	<g>
		<defs>
			<rect id="SVGID_19_" x="60.2" y="-18.8" width="1043.7" height="271.7"/>
		</defs>
		<clipPath id="SVGID_20_">
			<use xlink:href="#SVGID_19_"  style="overflow:visible;"/>
		</clipPath>
		<g id="g3902" class="st19">
			<path id="path3904" class="st20" d="M63.6,230.2c0,0,67.5-22,90.8-19.7c25.7,2.6,65.2,39.1,90.8,40.5
				c24.2,1.4,68.6-20.4,90.8-28.3c23.4-8.7,65.2-38.6,90.8-38.9c25.4-0.5,66,32.8,90.8,35.6c22.8,2.6,68.3-9.6,90.8-13.1
				c22.8-3.7,67.8-13.6,90.8-15.9c22.5-2.3,68-3,90.8-2.6c22.8,0.5,68,5.2,90.8,6.6s69.2-1.4,90.8,4.4c25.7,7,90.8,48.5,90.8,48.5"
				/>
		</g>
	</g>
</g>
<rect x="52" y="331.4" class="st21" width="27.1" height="13"/>
<text transform="matrix(1 0 0 1 51.9693 343.0303)" class="st22 st23 st24">Jan</text>
<rect x="140.9" y="331.9" class="st21" width="30.9" height="12.1"/>
<text transform="matrix(1 0 0 1 140.8784 343.4727)" class="st22 st23 st24">Feb</text>
<rect x="221.1" y="331.9" class="st21" width="52.4" height="12.1"/>
<text transform="matrix(1 0 0 1 221.1255 343.4727)" class="st22 st23 st24">March</text>
<rect x="318.2" y="331.9" class="st21" width="39.5" height="12.1"/>
<text transform="matrix(1 0 0 1 318.2163 343.4727)" class="st22 st23 st24">April</text>
<rect x="502" y="331.9" class="st21" width="36.4" height="12.1"/>
<text transform="matrix(1 0 0 1 502.0034 343.4727)" class="st22 st23 st24">June</text>
<rect x="409.1" y="331.9" class="st21" width="41" height="12.1"/>
<text transform="matrix(1 0 0 1 409.0572 343.4727)" class="st22 st23 st24">May</text>
<rect x="594.1" y="331.9" class="st21" width="32.6" height="12.1"/>
<text transform="matrix(1 0 0 1 594.1055 343.4727)" class="st22 st23 st24">July</text>
<rect x="674.1" y="331.9" class="st21" width="55.5" height="12.1"/>
<text transform="matrix(1 0 0 1 674.0743 343.4727)" class="st22 st23 st24">August</text>
<rect x="773.4" y="331.9" class="st21" width="37.4" height="12.1"/>
<text transform="matrix(1 0 0 1 773.376 343.4727)" class="st22 st23 st24">Sept</text>
<rect x="868.4" y="331.9" class="st21" width="30.6" height="12.1"/>
<text transform="matrix(1 0 0 1 868.4346 343.4727)" class="st22 st23 st24">Oct</text>
<rect x="955.9" y="331.9" class="st21" width="35.6" height="12.1"/>
<text transform="matrix(1 0 0 1 955.8995 343.4727)" class="st22 st23 st24">Nov</text>
<rect x="1049.5" y="331.9" class="st21" width="32.4" height="12.1"/>
<text transform="matrix(1 0 0 1 1049.4639 343.4727)" class="st22 st23 st24">Dec</text>
<path id="path3756_1_" class="st2" d="M63.6,308.6v16.9"/>
<path id="path3756_2_" class="st2" d="M245.4,308.6v16.9"/>
<path id="path3756_3_" class="st2" d="M426.6,308.6v16.9"/>
<path id="path3758_1_" class="st2" d="M608.5,308.6v16.9"/>
<path id="path3756_4_" class="st2" d="M791.3,308.6v16.9"/>
<path id="path3758_2_" class="st2" d="M973.2,308.6v16.9"/>
</svg>
